# xmcd
#
# Track frame offsets:
#	150
#	14371
#	25506
#	39757
#	60384
#	71060
#	81235
#	95919
#	110056
#	119956
#	137126
#	156297
#	167877
#	176078
#	185631
#
# Disc length: 2621 seconds
#
# Revision: 1
# Processed by: cddbd v1.5.2PL0 Copyright (c) Steve Scherf et al.
# Submitted via: audiograbber 1.83.01
#
DISCID=d60a3b0f
DTITLE=John Fred - I Miss Ya'll - John Fred
DYEAR=1999
DGENRE=Soul
TTITLE0=I Miss Ya'll
TTITLE1=Sugartime Girl
TTITLE2=High Blood Pressure
TTITLE3=Radio
TTITLE4=Little Bit Of Something
TTITLE5=American Dream
TTITLE6=We Had It All
TTITLE7=Funky D.J.
TTITLE8=Keep It Hid
TTITLE9=Born To Ride
TTITLE10=Nobody Knows
TTITLE11=What You Gonna Do (To My Heart)
TTITLE12=Hey Good Lookin'
TTITLE13=Louisiana Tunes
TTITLE14=I Miss Ya'll #5
EXTD=
EXTT0=
EXTT1=
EXTT2=
EXTT3=
EXTT4=
EXTT5=
EXTT6=
EXTT7=
EXTT8=
EXTT9=
EXTT10=
EXTT11=
EXTT12=
EXTT13=
EXTT14=
PLAYORDER=
